ISO-10303-21;
HEADER;
FILE_DESCRIPTION(('KiCad electronic assembly'),'2;1');
FILE_NAME('ci_dummy.step','2026-10-10T08:05:25',('Pcbnew'),('Kicad'),
  'Open CASCADE STEP processor 7.8','KiCad to STEP converter','Unknown'
  );
FILE_SCHEMA(('AUTOMOTIVE_DESIGN { 1 0 10303 214 1 1 1 1 }'));
ENDSEC;
DATA;
#1 = APPLICATION_PROTOCOL_DEFINITION('international standard',
  'automotive_design',2000,#2);
#2 = APPLICATION_CONTEXT(
  'core data for automotive mechanical design processes');
#3 = SHAPE_DEFINITION_REPRESENTATION(#4,#10);
#4 = PRODUCT_DEFINITION_SHAPE('','',#5);
#5 = PRODUCT_DEFINITION('design','',#6,#9);
#6 = PRODUCT_DEFINITION_FORMATION('','',#7);
#7 = PRODUCT('ci_dummy 1','ci_dummy 1','',(#8));
#8 = PRODUCT_CONTEXT('',#2,'mechanical');
#9 = PRODUCT_DEFINITION_CONTEXT('part definition',#2,'design');
#10 = SHAPE_REPRESENTATION('',(#11,#15,#19,#23,#27,#31,#35,#39,#43,#47,
    #51,#55),#59);
#11 = AXIS2_PLACEMENT_3D('',#12,#13,#14);
#12 = CARTESIAN_POINT('',(0.,0.,0.));
#13 = DIRECTION('',(0.,0.,1.));
#14 = DIRECTION('',(1.,0.,-0.));
#15 = AXIS2_PLACEMENT_3D('',#16,#17,#18);
#16 = CARTESIAN_POINT('',(104.,-88.,1.6));
#17 = DIRECTION('',(0.,0.,1.));
#18 = DIRECTION('',(1.,0.,0.));
#19 = AXIS2_PLACEMENT_3D('',#20,#21,#22);
#20 = CARTESIAN_POINT('',(92.,-88.,1.6));
#21 = DIRECTION('',(0.,0.,1.));
#22 = DIRECTION('',(1.,0.,0.));
#23 = AXIS2_PLACEMENT_3D('',#24,#25,#26);
#24 = CARTESIAN_POINT('',(116.,-88.,1.6));
#25 = DIRECTION('',(0.,0.,1.));
#26 = DIRECTION('',(1.,0.,0.));
#27 = AXIS2_PLACEMENT_3D('',#28,#29,#30);
#28 = CARTESIAN_POINT('',(86.,-88.,1.6));
#29 = DIRECTION('',(0.,0.,1.));
#30 = DIRECTION('',(1.,0.,0.));
#31 = AXIS2_PLACEMENT_3D('',#32,#33,#34);
#32 = CARTESIAN_POINT('',(134.,-88.,1.6));
#33 = DIRECTION('',(0.,0.,1.));
#34 = DIRECTION('',(1.,0.,0.));
#35 = AXIS2_PLACEMENT_3D('',#36,#37,#38);
#36 = CARTESIAN_POINT('',(110.,-88.,1.6));
#37 = DIRECTION('',(0.,0.,1.));
#38 = DIRECTION('',(1.,0.,0.));
#39 = AXIS2_PLACEMENT_3D('',#40,#41,#42);
#40 = CARTESIAN_POINT('',(140.,-88.,1.6));
#41 = DIRECTION('',(0.,0.,1.));
#42 = DIRECTION('',(1.,0.,0.));
#43 = AXIS2_PLACEMENT_3D('',#44,#45,#46);
#44 = CARTESIAN_POINT('',(128.,-88.,1.6));
#45 = DIRECTION('',(0.,0.,1.));
#46 = DIRECTION('',(1.,0.,0.));
#47 = AXIS2_PLACEMENT_3D('',#48,#49,#50);
#48 = CARTESIAN_POINT('',(98.,-88.,1.6));
#49 = DIRECTION('',(0.,0.,1.));
#50 = DIRECTION('',(1.,0.,0.));
#51 = AXIS2_PLACEMENT_3D('',#52,#53,#54);
#52 = CARTESIAN_POINT('',(122.,-88.,1.6));
#53 = DIRECTION('',(0.,0.,1.));
#54 = DIRECTION('',(1.,0.,0.));
#55 = AXIS2_PLACEMENT_3D('',#56,#57,#58);
#56 = CARTESIAN_POINT('',(0.,0.,0.));
#57 = DIRECTION('',(0.,0.,1.));
#58 = DIRECTION('',(1.,0.,-0.));
#59 = ( GEOMETRIC_REPRESENTATION_CONTEXT(3) 
GLOBAL_UNCERTAINTY_ASSIGNED_CONTEXT((#63)) GLOBAL_UNIT_ASSIGNED_CONTEXT(
(#60,#61,#62)) REPRESENTATION_CONTEXT('Context #1',
  '3D Context with UNIT and UNCERTAINTY') );
#60 = ( LENGTH_UNIT() NAMED_UNIT(*) SI_UNIT(.MILLI.,.METRE.) );
#61 = ( NAMED_UNIT(*) PLANE_ANGLE_UNIT() SI_UNIT($,.RADIAN.) );
#62 = ( NAMED_UNIT(*) SI_UNIT($,.STERADIAN.) SOLID_ANGLE_UNIT() );
#63 = UNCERTAINTY_MEASURE_WITH_UNIT(LENGTH_MEASURE(1.E-07),#60,
  'distance_accuracy_value','confusion accuracy');
#64 = PRODUCT_RELATED_PRODUCT_CATEGORY('part',$,(#7));
#65 = SHAPE_DEFINITION_REPRESENTATION(#66,#72);
#66 = PRODUCT_DEFINITION_SHAPE('','',#67);
#67 = PRODUCT_DEFINITION('design','',#68,#71);
#68 = PRODUCT_DEFINITION_FORMATION('','',#69);
#69 = PRODUCT('R_0603_1608Metric','R_0603_1608Metric','',(#70));
#70 = PRODUCT_CONTEXT('',#2,'mechanical');
#71 = PRODUCT_DEFINITION_CONTEXT('part definition',#2,'design');
#72 = ADVANCED_BREP_SHAPE_REPRESENTATION('',(#11,#73),#863);
#73 = MANIFOLD_SOLID_BREP('',#74);
#74 = CLOSED_SHELL('',(#75,#115,#198,#223,#248,#315,#332,#349,#398,#415,
    #432,#481,#498,#567,#598,#622,#691,#715,#732,#749,#766,#783,#800,
    #817,#834,#851));
#75 = ADVANCED_FACE('',(#76),#110,.F.);
#76 = FACE_BOUND('',#77,.F.);
#77 = EDGE_LOOP('',(#78,#88,#96,#104));
#78 = ORIENTED_EDGE('',*,*,#79,.F.);
#79 = EDGE_CURVE('',#80,#82,#84,.T.);
#80 = VERTEX_POINT('',#81);
#81 = CARTESIAN_POINT('',(-0.8,-0.4,4.5E-02));
#82 = VERTEX_POINT('',#83);
#83 = CARTESIAN_POINT('',(-0.8,-0.4,0.405));
#84 = LINE('',#85,#86);
#85 = CARTESIAN_POINT('',(-0.8,-0.4,0.));
#86 = VECTOR('',#87,1.);
#87 = DIRECTION('',(0.,0.,1.));
#88 = ORIENTED_EDGE('',*,*,#89,.T.);
#89 = EDGE_CURVE('',#80,#90,#92,.T.);
#90 = VERTEX_POINT('',#91);
#91 = CARTESIAN_POINT('',(-0.8,0.4,4.5E-02));
#92 = LINE('',#93,#94);
#93 = CARTESIAN_POINT('',(-0.8,-0.4,4.5E-02));
#94 = VECTOR('',#95,1.);
#95 = DIRECTION('',(0.,1.,0.));
#96 = ORIENTED_EDGE('',*,*,#97,.T.);
#97 = EDGE_CURVE('',#90,#98,#100,.T.);
#98 = VERTEX_POINT('',#99);
#99 = CARTESIAN_POINT('',(-0.8,0.4,0.405));
#100 = LINE('',#101,#102);
#101 = CARTESIAN_POINT('',(-0.8,0.4,0.));
#102 = VECTOR('',#103,1.);
#103 = DIRECTION('',(0.,0.,1.));
#104 = ORIENTED_EDGE('',*,*,#105,.F.);
#105 = EDGE_CURVE('',#82,#98,#106,.T.);
#106 = LINE('',#107,#108);
#107 = CARTESIAN_POINT('',(-0.8,-0.4,0.405));
#108 = VECTOR('',#109,1.);
#109 = DIRECTION('',(0.,1.,0.));
#110 = PLANE('',#111);
#111 = AXIS2_PLACEMENT_3D('',#112,#113,#114);
#112 = CARTESIAN_POINT('',(-0.8,-0.4,0.));
#113 = DIRECTION('',(1.,0.,0.));
#114 = DIRECTION('',(0.,0.,1.));
#115 = ADVANCED_FACE('',(#116),#193,.F.);
#116 = FACE_BOUND('',#117,.F.);
#117 = EDGE_LOOP('',(#118,#128,#135,#136,#145,#153,#162,#170,#178,#186)
  );
#118 = ORIENTED_EDGE('',*,*,#119,.F.);
#119 = EDGE_CURVE('',#120,#122,#124,.T.);
#120 = VERTEX_POINT('',#121);
#121 = CARTESIAN_POINT('',(-0.755,-0.4,-2.775557561563E-17));
#122 = VERTEX_POINT('',#123);
#123 = CARTESIAN_POINT('',(-0.545,-0.4,-2.775557561563E-17));
#124 = LINE('',#125,#126);
#125 = CARTESIAN_POINT('',(-0.8,-0.4,0.));
#126 = VECTOR('',#127,1.);
#127 = DIRECTION('',(1.,0.,0.));
#128 = ORIENTED_EDGE('',*,*,#129,.F.);
#129 = EDGE_CURVE('',#80,#120,#130,.T.);
#130 = CIRCLE('',#131,4.5E-02);
#131 = AXIS2_PLACEMENT_3D('',#132,#133,#134);
#132 = CARTESIAN_POINT('',(-0.755,-0.4,4.5E-02));
#133 = DIRECTION('',(0.,-1.,0.));
#134 = DIRECTION('',(0.,0.,1.));
#135 = ORIENTED_EDGE('',*,*,#79,.T.);
#136 = ORIENTED_EDGE('',*,*,#137,.T.);
#137 = EDGE_CURVE('',#82,#138,#140,.T.);
#138 = VERTEX_POINT('',#139);
#139 = CARTESIAN_POINT('',(-0.755,-0.4,0.45));
#140 = CIRCLE('',#141,4.5E-02);
#141 = AXIS2_PLACEMENT_3D('',#142,#143,#144);
#142 = CARTESIAN_POINT('',(-0.755,-0.4,0.405));
#143 = DIRECTION('',(0.,1.,0.));
#144 = DIRECTION('',(0.,-0.,1.));
#145 = ORIENTED_EDGE('',*,*,#146,.T.);
#146 = EDGE_CURVE('',#138,#147,#149,.T.);
#147 = VERTEX_POINT('',#148);
#148 = CARTESIAN_POINT('',(-0.545,-0.4,0.45));
#149 = LINE('',#150,#151);
#150 = CARTESIAN_POINT('',(-0.8,-0.4,0.45));
#151 = VECTOR('',#152,1.);
#152 = DIRECTION('',(1.,0.,0.));
#153 = ORIENTED_EDGE('',*,*,#154,.F.);
#154 = EDGE_CURVE('',#155,#147,#157,.T.);
#155 = VERTEX_POINT('',#156);
#156 = CARTESIAN_POINT('',(-0.5,-0.4,0.405));
#157 = CIRCLE('',#158,4.5E-02);
#158 = AXIS2_PLACEMENT_3D('',#159,#160,#161);
#159 = CARTESIAN_POINT('',(-0.545,-0.4,0.405));
#160 = DIRECTION('',(0.,-1.,0.));
#161 = DIRECTION('',(0.,0.,1.));
#162 = ORIENTED_EDGE('',*,*,#163,.F.);
#163 = EDGE_CURVE('',#164,#155,#166,.T.);
#164 = VERTEX_POINT('',#165);
#165 = CARTESIAN_POINT('',(-0.755,-0.4,0.405));
#166 = LINE('',#167,#168);
#167 = CARTESIAN_POINT('',(-0.755,-0.4,0.405));
#168 = VECTOR('',#169,1.);
#169 = DIRECTION('',(1.,0.,0.));
#170 = ORIENTED_EDGE('',*,*,#171,.F.);
#171 = EDGE_CURVE('',#172,#164,#174,.T.);
#172 = VERTEX_POINT('',#173);
#173 = CARTESIAN_POINT('',(-0.755,-0.4,4.5E-02));
#174 = LINE('',#175,#176);
#175 = CARTESIAN_POINT('',(-0.755,-0.4,4.5E-02));
#176 = VECTOR('',#177,1.);
#177 = DIRECTION('',(0.,0.,1.));
#178 = ORIENTED_EDGE('',*,*,#179,.T.);
#179 = EDGE_CURVE('',#172,#180,#182,.T.);
#180 = VERTEX_POINT('',#181);
#181 = CARTESIAN_POINT('',(-0.5,-0.4,4.5E-02));
#182 = LINE('',#183,#184);
#183 = CARTESIAN_POINT('',(-0.755,-0.4,4.5E-02));
#184 = VECTOR('',#185,1.);
#185 = DIRECTION('',(1.,0.,0.));
#186 = ORIENTED_EDGE('',*,*,#187,.T.);
#187 = EDGE_CURVE('',#180,#122,#188,.T.);
#188 = CIRCLE('',#189,4.5E-02);
#189 = AXIS2_PLACEMENT_3D('',#190,#191,#192);
#190 = CARTESIAN_POINT('',(-0.545,-0.4,4.5E-02));
#191 = DIRECTION('',(0.,1.,0.));
#192 = DIRECTION('',(0.,-0.,1.));
#193 = PLANE('',#194);
#194 = AXIS2_PLACEMENT_3D('',#195,#196,#197);
#195 = CARTESIAN_POINT('',(-0.8,-0.4,0.));
#196 = DIRECTION('',(0.,1.,0.));
#197 = DIRECTION('',(0.,-0.,1.));
#198 = ADVANCED_FACE('',(#199),#218,.T.);
#199 = FACE_BOUND('',#200,.T.);
#200 = EDGE_LOOP('',(#201,#202,#211,#217));
#201 = ORIENTED_EDGE('',*,*,#89,.T.);
#202 = ORIENTED_EDGE('',*,*,#203,.T.);
#203 = EDGE_CURVE('',#90,#204,#206,.T.);
#204 = VERTEX_POINT('',#205);
#205 = CARTESIAN_POINT('',(-0.755,0.4,-2.775557561563E-17));
#206 = CIRCLE('',#207,4.5E-02);
#207 = AXIS2_PLACEMENT_3D('',#208,#209,#210);
#208 = CARTESIAN_POINT('',(-0.755,0.4,4.5E-02));
#209 = DIRECTION('',(0.,-1.,0.));
#210 = DIRECTION('',(0.,0.,1.));
#211 = ORIENTED_EDGE('',*,*,#212,.F.);
#212 = EDGE_CURVE('',#120,#204,#213,.T.);
#213 = LINE('',#214,#215);
#214 = CARTESIAN_POINT('',(-0.755,-0.4,-2.775557561563E-17));
#215 = VECTOR('',#216,1.);
#216 = DIRECTION('',(0.,1.,0.));
#217 = ORIENTED_EDGE('',*,*,#129,.F.);
#218 = CYLINDRICAL_SURFACE('',#219,4.5E-02);
#219 = AXIS2_PLACEMENT_3D('',#220,#221,#222);
#220 = CARTESIAN_POINT('',(-0.755,-0.4,4.5E-02));
#221 = DIRECTION('',(0.,1.,0.));
#222 = DIRECTION('',(-1.,0.,0.));
#223 = ADVANCED_FACE('',(#224),#243,.T.);
#224 = FACE_BOUND('',#225,.T.);
#225 = EDGE_LOOP('',(#226,#227,#235,#242));
#226 = ORIENTED_EDGE('',*,*,#137,.T.);
#227 = ORIENTED_EDGE('',*,*,#228,.T.);
#228 = EDGE_CURVE('',#138,#229,#231,.T.);
#229 = VERTEX_POINT('',#230);
#230 = CARTESIAN_POINT('',(-0.755,0.4,0.45));
#231 = LINE('',#232,#233);
#232 = CARTESIAN_POINT('',(-0.755,-0.4,0.45));
#233 = VECTOR('',#234,1.);
#234 = DIRECTION('',(0.,1.,0.));
#235 = ORIENTED_EDGE('',*,*,#236,.F.);
#236 = EDGE_CURVE('',#98,#229,#237,.T.);
#237 = CIRCLE('',#238,4.5E-02);
#238 = AXIS2_PLACEMENT_3D('',#239,#240,#241);
#239 = CARTESIAN_POINT('',(-0.755,0.4,0.405));
#240 = DIRECTION('',(0.,1.,0.));
#241 = DIRECTION('',(0.,-0.,1.));
#242 = ORIENTED_EDGE('',*,*,#105,.F.);
#243 = CYLINDRICAL_SURFACE('',#244,4.5E-02);
#244 = AXIS2_PLACEMENT_3D('',#245,#246,#247);
#245 = CARTESIAN_POINT('',(-0.755,-0.4,0.405));
#246 = DIRECTION('',(0.,1.,0.));
#247 = DIRECTION('',(-1.,0.,0.));
#248 = ADVANCED_FACE('',(#249),#310,.T.);
#249 = FACE_BOUND('',#250,.T.);
#250 = EDGE_LOOP('',(#251,#259,#260,#261,#262,#270,#279,#287,#295,#303)
  );
#251 = ORIENTED_EDGE('',*,*,#252,.F.);
#252 = EDGE_CURVE('',#204,#253,#255,.T.);
#253 = VERTEX_POINT('',#254);
#254 = CARTESIAN_POINT('',(-0.545,0.4,-2.775557561563E-17));
#255 = LINE('',#256,#257);
#256 = CARTESIAN_POINT('',(-0.8,0.4,0.));
#257 = VECTOR('',#258,1.);
#258 = DIRECTION('',(1.,0.,0.));
#259 = ORIENTED_EDGE('',*,*,#203,.F.);
#260 = ORIENTED_EDGE('',*,*,#97,.T.);
#261 = ORIENTED_EDGE('',*,*,#236,.T.);
#262 = ORIENTED_EDGE('',*,*,#263,.T.);
#263 = EDGE_CURVE('',#229,#264,#266,.T.);
#264 = VERTEX_POINT('',#265);
#265 = CARTESIAN_POINT('',(-0.545,0.4,0.45));
#266 = LINE('',#267,#268);
#267 = CARTESIAN_POINT('',(-0.8,0.4,0.45));
#268 = VECTOR('',#269,1.);
#269 = DIRECTION('',(1.,0.,0.));
#270 = ORIENTED_EDGE('',*,*,#271,.F.);
#271 = EDGE_CURVE('',#272,#264,#274,.T.);
#272 = VERTEX_POINT('',#273);
#273 = CARTESIAN_POINT('',(-0.5,0.4,0.405));
#274 = CIRCLE('',#275,4.5E-02);
#275 = AXIS2_PLACEMENT_3D('',#276,#277,#278);
#276 = CARTESIAN_POINT('',(-0.545,0.4,0.405));
#277 = DIRECTION('',(0.,-1.,0.));
#278 = DIRECTION('',(0.,0.,1.));
#279 = ORIENTED_EDGE('',*,*,#280,.F.);
#280 = EDGE_CURVE('',#281,#272,#283,.T.);
#281 = VERTEX_POINT('',#282);
#282 = CARTESIAN_POINT('',(-0.755,0.4,0.405));
#283 = LINE('',#284,#285);
#284 = CARTESIAN_POINT('',(-0.755,0.4,0.405));
#285 = VECTOR('',#286,1.);
#286 = DIRECTION('',(1.,0.,0.));
#287 = ORIENTED_EDGE('',*,*,#288,.F.);
#288 = EDGE_CURVE('',#289,#281,#291,.T.);
#289 = VERTEX_POINT('',#290);
#290 = CARTESIAN_POINT('',(-0.755,0.4,4.5E-02));
#291 = LINE('',#292,#293);
#292 = CARTESIAN_POINT('',(-0.755,0.4,4.5E-02));
#293 = VECTOR('',#294,1.);
#294 = DIRECTION('',(0.,0.,1.));
#295 = ORIENTED_EDGE('',*,*,#296,.T.);
#296 = EDGE_CURVE('',#289,#297,#299,.T.);
#297 = VERTEX_POINT('',#298);
#298 = CARTESIAN_POINT('',(-0.5,0.4,4.5E-02));
#299 = LINE('',#300,#301);
#300 = CARTESIAN_POINT('',(-0.755,0.4,4.5E-02));
#301 = VECTOR('',#302,1.);
#302 = DIRECTION('',(1.,0.,0.));
#303 = ORIENTED_EDGE('',*,*,#304,.T.);
#304 = EDGE_CURVE('',#297,#253,#305,.T.);
#305 = CIRCLE('',#306,4.5E-02);
#306 = AXIS2_PLACEMENT_3D('',#307,#308,#309);
#307 = CARTESIAN_POINT('',(-0.545,0.4,4.5E-02));
#308 = DIRECTION('',(0.,1.,0.));
#309 = DIRECTION('',(0.,-0.,1.));
#310 = PLANE('',#311);
#311 = AXIS2_PLACEMENT_3D('',#312,#313,#314);
#312 = CARTESIAN_POINT('',(-0.8,0.4,0.));
#313 = DIRECTION('',(0.,1.,0.));
#314 = DIRECTION('',(0.,-0.,1.));
#315 = ADVANCED_FACE('',(#316),#327,.F.);
#316 = FACE_BOUND('',#317,.F.);
#317 = EDGE_LOOP('',(#318,#319,#320,#321));
#318 = ORIENTED_EDGE('',*,*,#252,.F.);
#319 = ORIENTED_EDGE('',*,*,#212,.F.);
#320 = ORIENTED_EDGE('',*,*,#119,.T.);
#321 = ORIENTED_EDGE('',*,*,#322,.T.);
#322 = EDGE_CURVE('',#122,#253,#323,.T.);
#323 = LINE('',#324,#325);
#324 = CARTESIAN_POINT('',(-0.545,-0.4,-2.775557561563E-17));
#325 = VECTOR('',#326,1.);
#326 = DIRECTION('',(0.,1.,0.));
#327 = PLANE('',#328);
#328 = AXIS2_PLACEMENT_3D('',#329,#330,#331);
#329 = CARTESIAN_POINT('',(-0.8,-0.4,0.));
#330 = DIRECTION('',(0.,0.,1.));
#331 = DIRECTION('',(1.,0.,-0.));
#332 = ADVANCED_FACE('',(#333),#344,.T.);
#333 = FACE_BOUND('',#334,.T.);
#334 = EDGE_LOOP('',(#335,#336,#337,#338));
#335 = ORIENTED_EDGE('',*,*,#187,.T.);
#336 = ORIENTED_EDGE('',*,*,#322,.T.);
#337 = ORIENTED_EDGE('',*,*,#304,.F.);
#338 = ORIENTED_EDGE('',*,*,#339,.F.);
#339 = EDGE_CURVE('',#180,#297,#340,.T.);
#340 = LINE('',#341,#342);
#341 = CARTESIAN_POINT('',(-0.5,-0.4,4.5E-02));
#342 = VECTOR('',#343,1.);
#343 = DIRECTION('',(0.,1.,0.));
#344 = CYLINDRICAL_SURFACE('',#345,4.5E-02);
#345 = AXIS2_PLACEMENT_3D('',#346,#347,#348);
#346 = CARTESIAN_POINT('',(-0.545,-0.4,4.5E-02));
#347 = DIRECTION('',(0.,1.,0.));
#348 = DIRECTION('',(1.,0.,0.));
#349 = ADVANCED_FACE('',(#350),#393,.F.);
#350 = FACE_BOUND('',#351,.F.);
#351 = EDGE_LOOP('',(#352,#353,#354,#355,#363,#371,#379,#387));
#352 = ORIENTED_EDGE('',*,*,#179,.F.);
#353 = ORIENTED_EDGE('',*,*,#171,.T.);
#354 = ORIENTED_EDGE('',*,*,#163,.T.);
#355 = ORIENTED_EDGE('',*,*,#356,.T.);
#356 = EDGE_CURVE('',#155,#357,#359,.T.);
#357 = VERTEX_POINT('',#358);
#358 = CARTESIAN_POINT('',(0.5,-0.4,0.405));
#359 = LINE('',#360,#361);
#360 = CARTESIAN_POINT('',(-0.5,-0.4,0.405));
#361 = VECTOR('',#362,1.);
#362 = DIRECTION('',(1.,0.,0.));
#363 = ORIENTED_EDGE('',*,*,#364,.T.);
#364 = EDGE_CURVE('',#357,#365,#367,.T.);
#365 = VERTEX_POINT('',#366);
#366 = CARTESIAN_POINT('',(0.755,-0.4,0.405));
#367 = LINE('',#368,#369);
#368 = CARTESIAN_POINT('',(-0.755,-0.4,0.405));
#369 = VECTOR('',#370,1.);
#370 = DIRECTION('',(1.,0.,0.));
#371 = ORIENTED_EDGE('',*,*,#372,.F.);
#372 = EDGE_CURVE('',#373,#365,#375,.T.);
#373 = VERTEX_POINT('',#374);
#374 = CARTESIAN_POINT('',(0.755,-0.4,4.5E-02));
#375 = LINE('',#376,#377);
#376 = CARTESIAN_POINT('',(0.755,-0.4,4.5E-02));
#377 = VECTOR('',#378,1.);
#378 = DIRECTION('',(0.,0.,1.));
#379 = ORIENTED_EDGE('',*,*,#380,.F.);
#380 = EDGE_CURVE('',#381,#373,#383,.T.);
#381 = VERTEX_POINT('',#382);
#382 = CARTESIAN_POINT('',(0.5,-0.4,4.5E-02));
#383 = LINE('',#384,#385);
#384 = CARTESIAN_POINT('',(-0.755,-0.4,4.5E-02));
#385 = VECTOR('',#386,1.);
#386 = DIRECTION('',(1.,0.,0.));
#387 = ORIENTED_EDGE('',*,*,#388,.F.);
#388 = EDGE_CURVE('',#180,#381,#389,.T.);
#389 = LINE('',#390,#391);
#390 = CARTESIAN_POINT('',(-0.755,-0.4,4.5E-02));
#391 = VECTOR('',#392,1.);
#392 = DIRECTION('',(1.,0.,0.));
#393 = PLANE('',#394);
#394 = AXIS2_PLACEMENT_3D('',#395,#396,#397);
#395 = CARTESIAN_POINT('',(-0.755,-0.4,4.5E-02));
#396 = DIRECTION('',(0.,1.,0.));
#397 = DIRECTION('',(0.,-0.,1.));
#398 = ADVANCED_FACE('',(#399),#410,.T.);
#399 = FACE_BOUND('',#400,.T.);
#400 = EDGE_LOOP('',(#401,#402,#403,#404));
#401 = ORIENTED_EDGE('',*,*,#263,.F.);
#402 = ORIENTED_EDGE('',*,*,#228,.F.);
#403 = ORIENTED_EDGE('',*,*,#146,.T.);
#404 = ORIENTED_EDGE('',*,*,#405,.T.);
#405 = EDGE_CURVE('',#147,#264,#406,.T.);
#406 = LINE('',#407,#408);
#407 = CARTESIAN_POINT('',(-0.545,-0.4,0.45));
#408 = VECTOR('',#409,1.);
#409 = DIRECTION('',(0.,1.,0.));
#410 = PLANE('',#411);
#411 = AXIS2_PLACEMENT_3D('',#412,#413,#414);
#412 = CARTESIAN_POINT('',(-0.8,-0.4,0.45));
#413 = DIRECTION('',(0.,0.,1.));
#414 = DIRECTION('',(1.,0.,-0.));
#415 = ADVANCED_FACE('',(#416),#427,.T.);
#416 = FACE_BOUND('',#417,.T.);
#417 = EDGE_LOOP('',(#418,#424,#425,#426));
#418 = ORIENTED_EDGE('',*,*,#419,.T.);
#419 = EDGE_CURVE('',#155,#272,#420,.T.);
#420 = LINE('',#421,#422);
#421 = CARTESIAN_POINT('',(-0.5,-0.4,0.405));
#422 = VECTOR('',#423,1.);
#423 = DIRECTION('',(0.,1.,0.));
#424 = ORIENTED_EDGE('',*,*,#271,.T.);
#425 = ORIENTED_EDGE('',*,*,#405,.F.);
#426 = ORIENTED_EDGE('',*,*,#154,.F.);
#427 = CYLINDRICAL_SURFACE('',#428,4.5E-02);
#428 = AXIS2_PLACEMENT_3D('',#429,#430,#431);
#429 = CARTESIAN_POINT('',(-0.545,-0.4,0.405));
#430 = DIRECTION('',(0.,1.,0.));
#431 = DIRECTION('',(1.,0.,0.));
#432 = ADVANCED_FACE('',(#433),#476,.T.);
#433 = FACE_BOUND('',#434,.T.);
#434 = EDGE_LOOP('',(#435,#436,#437,#438,#446,#454,#462,#470));
#435 = ORIENTED_EDGE('',*,*,#296,.F.);
#436 = ORIENTED_EDGE('',*,*,#288,.T.);
#437 = ORIENTED_EDGE('',*,*,#280,.T.);
#438 = ORIENTED_EDGE('',*,*,#439,.T.);
#439 = EDGE_CURVE('',#272,#440,#442,.T.);
#440 = VERTEX_POINT('',#441);
#441 = CARTESIAN_POINT('',(0.5,0.4,0.405));
#442 = LINE('',#443,#444);
#443 = CARTESIAN_POINT('',(-0.5,0.4,0.405));
#444 = VECTOR('',#445,1.);
#445 = DIRECTION('',(1.,0.,0.));
#446 = ORIENTED_EDGE('',*,*,#447,.T.);
#447 = EDGE_CURVE('',#440,#448,#450,.T.);
#448 = VERTEX_POINT('',#449);
#449 = CARTESIAN_POINT('',(0.755,0.4,0.405));
#450 = LINE('',#451,#452);
#451 = CARTESIAN_POINT('',(-0.755,0.4,0.405));
#452 = VECTOR('',#453,1.);
#453 = DIRECTION('',(1.,0.,0.));
#454 = ORIENTED_EDGE('',*,*,#455,.F.);
#455 = EDGE_CURVE('',#456,#448,#458,.T.);
#456 = VERTEX_POINT('',#457);
#457 = CARTESIAN_POINT('',(0.755,0.4,4.5E-02));
#458 = LINE('',#459,#460);
#459 = CARTESIAN_POINT('',(0.755,0.4,4.5E-02));
#460 = VECTOR('',#461,1.);
#461 = DIRECTION('',(0.,0.,1.));
#462 = ORIENTED_EDGE('',*,*,#463,.F.);
#463 = EDGE_CURVE('',#464,#456,#466,.T.);
#464 = VERTEX_POINT('',#465);
#465 = CARTESIAN_POINT('',(0.5,0.4,4.5E-02));
#466 = LINE('',#467,#468);
#467 = CARTESIAN_POINT('',(-0.755,0.4,4.5E-02));
#468 = VECTOR('',#469,1.);
#469 = DIRECTION('',(1.,0.,0.));
#470 = ORIENTED_EDGE('',*,*,#471,.F.);
#471 = EDGE_CURVE('',#297,#464,#472,.T.);
#472 = LINE('',#473,#474);
#473 = CARTESIAN_POINT('',(-0.755,0.4,4.5E-02));
#474 = VECTOR('',#475,1.);
#475 = DIRECTION('',(1.,0.,0.));
#476 = PLANE('',#477);
#477 = AXIS2_PLACEMENT_3D('',#478,#479,#480);
#478 = CARTESIAN_POINT('',(-0.755,0.4,4.5E-02));
#479 = DIRECTION('',(0.,1.,0.));
#480 = DIRECTION('',(0.,-0.,1.));
#481 = ADVANCED_FACE('',(#482),#493,.F.);
#482 = FACE_BOUND('',#483,.F.);
#483 = EDGE_LOOP('',(#484,#485,#486,#492));
#484 = ORIENTED_EDGE('',*,*,#339,.F.);
#485 = ORIENTED_EDGE('',*,*,#388,.T.);
#486 = ORIENTED_EDGE('',*,*,#487,.T.);
#487 = EDGE_CURVE('',#381,#464,#488,.T.);
#488 = LINE('',#489,#490);
#489 = CARTESIAN_POINT('',(0.5,-0.4,4.5E-02));
#490 = VECTOR('',#491,1.);
#491 = DIRECTION('',(0.,1.,0.));
#492 = ORIENTED_EDGE('',*,*,#471,.F.);
#493 = PLANE('',#494);
#494 = AXIS2_PLACEMENT_3D('',#495,#496,#497);
#495 = CARTESIAN_POINT('',(-0.755,-0.4,4.5E-02));
#496 = DIRECTION('',(0.,0.,1.));
#497 = DIRECTION('',(1.,0.,-0.));
#498 = ADVANCED_FACE('',(#499),#562,.F.);
#499 = FACE_BOUND('',#500,.F.);
#500 = EDGE_LOOP('',(#501,#511,#518,#519,#520,#521,#530,#538,#547,#555)
  );
#501 = ORIENTED_EDGE('',*,*,#502,.F.);
#502 = EDGE_CURVE('',#503,#505,#507,.T.);
#503 = VERTEX_POINT('',#504);
#504 = CARTESIAN_POINT('',(0.545,-0.4,-2.775557561563E-17));
#505 = VERTEX_POINT('',#506);
#506 = CARTESIAN_POINT('',(0.755,-0.4,-2.775557561563E-17));
#507 = LINE('',#508,#509);
#508 = CARTESIAN_POINT('',(0.5,-0.4,0.));
#509 = VECTOR('',#510,1.);
#510 = DIRECTION('',(1.,0.,0.));
#511 = ORIENTED_EDGE('',*,*,#512,.F.);
#512 = EDGE_CURVE('',#381,#503,#513,.T.);
#513 = CIRCLE('',#514,4.5E-02);
#514 = AXIS2_PLACEMENT_3D('',#515,#516,#517);
#515 = CARTESIAN_POINT('',(0.545,-0.4,4.5E-02));
#516 = DIRECTION('',(0.,-1.,0.));
#517 = DIRECTION('',(0.,0.,1.));
#518 = ORIENTED_EDGE('',*,*,#380,.T.);
#519 = ORIENTED_EDGE('',*,*,#372,.T.);
#520 = ORIENTED_EDGE('',*,*,#364,.F.);
#521 = ORIENTED_EDGE('',*,*,#522,.T.);
#522 = EDGE_CURVE('',#357,#523,#525,.T.);
#523 = VERTEX_POINT('',#524);
#524 = CARTESIAN_POINT('',(0.545,-0.4,0.45));
#525 = CIRCLE('',#526,4.5E-02);
#526 = AXIS2_PLACEMENT_3D('',#527,#528,#529);
#527 = CARTESIAN_POINT('',(0.545,-0.4,0.405));
#528 = DIRECTION('',(0.,1.,0.));
#529 = DIRECTION('',(0.,-0.,1.));
#530 = ORIENTED_EDGE('',*,*,#531,.T.);
#531 = EDGE_CURVE('',#523,#532,#534,.T.);
#532 = VERTEX_POINT('',#533);
#533 = CARTESIAN_POINT('',(0.755,-0.4,0.45));
#534 = LINE('',#535,#536);
#535 = CARTESIAN_POINT('',(0.5,-0.4,0.45));
#536 = VECTOR('',#537,1.);
#537 = DIRECTION('',(1.,0.,0.));
#538 = ORIENTED_EDGE('',*,*,#539,.F.);
#539 = EDGE_CURVE('',#540,#532,#542,.T.);
#540 = VERTEX_POINT('',#541);
#541 = CARTESIAN_POINT('',(0.8,-0.4,0.405));
#542 = CIRCLE('',#543,4.5E-02);
#543 = AXIS2_PLACEMENT_3D('',#544,#545,#546);
#544 = CARTESIAN_POINT('',(0.755,-0.4,0.405));
#545 = DIRECTION('',(0.,-1.,0.));
#546 = DIRECTION('',(0.,0.,1.));
#547 = ORIENTED_EDGE('',*,*,#548,.F.);
#548 = EDGE_CURVE('',#549,#540,#551,.T.);
#549 = VERTEX_POINT('',#550);
#550 = CARTESIAN_POINT('',(0.8,-0.4,4.5E-02));
#551 = LINE('',#552,#553);
#552 = CARTESIAN_POINT('',(0.8,-0.4,0.));
#553 = VECTOR('',#554,1.);
#554 = DIRECTION('',(0.,0.,1.));
#555 = ORIENTED_EDGE('',*,*,#556,.T.);
#556 = EDGE_CURVE('',#549,#505,#557,.T.);
#557 = CIRCLE('',#558,4.5E-02);
#558 = AXIS2_PLACEMENT_3D('',#559,#560,#561);
#559 = CARTESIAN_POINT('',(0.755,-0.4,4.5E-02));
#560 = DIRECTION('',(0.,1.,0.));
#561 = DIRECTION('',(0.,-0.,1.));
#562 = PLANE('',#563);
#563 = AXIS2_PLACEMENT_3D('',#564,#565,#566);
#564 = CARTESIAN_POINT('',(0.5,-0.4,0.));
#565 = DIRECTION('',(0.,1.,0.));
#566 = DIRECTION('',(0.,-0.,1.));
#567 = ADVANCED_FACE('',(#568),#593,.F.);
#568 = FACE_BOUND('',#569,.F.);
#569 = EDGE_LOOP('',(#570,#571,#579,#587));
#570 = ORIENTED_EDGE('',*,*,#356,.F.);
#571 = ORIENTED_EDGE('',*,*,#572,.T.);
#572 = EDGE_CURVE('',#155,#573,#575,.T.);
#573 = VERTEX_POINT('',#574);
#574 = CARTESIAN_POINT('',(-0.5,-0.4,0.45));
#575 = LINE('',#576,#577);
#576 = CARTESIAN_POINT('',(-0.5,-0.4,0.405));
#577 = VECTOR('',#578,1.);
#578 = DIRECTION('',(0.,0.,1.));
#579 = ORIENTED_EDGE('',*,*,#580,.T.);
#580 = EDGE_CURVE('',#573,#581,#583,.T.);
#581 = VERTEX_POINT('',#582);
#582 = CARTESIAN_POINT('',(0.5,-0.4,0.45));
#583 = LINE('',#584,#585);
#584 = CARTESIAN_POINT('',(-0.5,-0.4,0.45));
#585 = VECTOR('',#586,1.);
#586 = DIRECTION('',(1.,0.,0.));
#587 = ORIENTED_EDGE('',*,*,#588,.F.);
#588 = EDGE_CURVE('',#357,#581,#589,.T.);
#589 = LINE('',#590,#591);
#590 = CARTESIAN_POINT('',(0.5,-0.4,0.405));
#591 = VECTOR('',#592,1.);
#592 = DIRECTION('',(0.,0.,1.));
#593 = PLANE('',#594);
#594 = AXIS2_PLACEMENT_3D('',#595,#596,#597);
#595 = CARTESIAN_POINT('',(-0.5,-0.4,0.405));
#596 = DIRECTION('',(0.,1.,0.));
#597 = DIRECTION('',(0.,-0.,1.));
#598 = ADVANCED_FACE('',(#599),#617,.F.);
#599 = FACE_BOUND('',#600,.F.);
#600 = EDGE_LOOP('',(#601,#602,#603,#611));
#601 = ORIENTED_EDGE('',*,*,#572,.F.);
#602 = ORIENTED_EDGE('',*,*,#419,.T.);
#603 = ORIENTED_EDGE('',*,*,#604,.T.);
#604 = EDGE_CURVE('',#272,#605,#607,.T.);
#605 = VERTEX_POINT('',#606);
#606 = CARTESIAN_POINT('',(-0.5,0.4,0.45));
#607 = LINE('',#608,#609);
#608 = CARTESIAN_POINT('',(-0.5,0.4,0.405));
#609 = VECTOR('',#610,1.);
#610 = DIRECTION('',(0.,0.,1.));
#611 = ORIENTED_EDGE('',*,*,#612,.F.);
#612 = EDGE_CURVE('',#573,#605,#613,.T.);
#613 = LINE('',#614,#615);
#614 = CARTESIAN_POINT('',(-0.5,-0.4,0.45));
#615 = VECTOR('',#616,1.);
#616 = DIRECTION('',(0.,1.,0.));
#617 = PLANE('',#618);
#618 = AXIS2_PLACEMENT_3D('',#619,#620,#621);
#619 = CARTESIAN_POINT('',(-0.5,-0.4,0.405));
#620 = DIRECTION('',(1.,0.,0.));
#621 = DIRECTION('',(0.,0.,1.));
#622 = ADVANCED_FACE('',(#623),#686,.T.);
#623 = FACE_BOUND('',#624,.T.);
#624 = EDGE_LOOP('',(#625,#635,#642,#643,#644,#645,#654,#662,#671,#679)
  );
#625 = ORIENTED_EDGE('',*,*,#626,.F.);
#626 = EDGE_CURVE('',#627,#629,#631,.T.);
#627 = VERTEX_POINT('',#628);
#628 = CARTESIAN_POINT('',(0.545,0.4,-2.775557561563E-17));
#629 = VERTEX_POINT('',#630);
#630 = CARTESIAN_POINT('',(0.755,0.4,-2.775557561563E-17));
#631 = LINE('',#632,#633);
#632 = CARTESIAN_POINT('',(0.5,0.4,0.));
#633 = VECTOR('',#634,1.);
#634 = DIRECTION('',(1.,0.,0.));
#635 = ORIENTED_EDGE('',*,*,#636,.F.);
#636 = EDGE_CURVE('',#464,#627,#637,.T.);
#637 = CIRCLE('',#638,4.5E-02);
#638 = AXIS2_PLACEMENT_3D('',#639,#640,#641);
#639 = CARTESIAN_POINT('',(0.545,0.4,4.5E-02));
#640 = DIRECTION('',(0.,-1.,0.));
#641 = DIRECTION('',(0.,0.,1.));
#642 = ORIENTED_EDGE('',*,*,#463,.T.);
#643 = ORIENTED_EDGE('',*,*,#455,.T.);
#644 = ORIENTED_EDGE('',*,*,#447,.F.);
#645 = ORIENTED_EDGE('',*,*,#646,.T.);
#646 = EDGE_CURVE('',#440,#647,#649,.T.);
#647 = VERTEX_POINT('',#648);
#648 = CARTESIAN_POINT('',(0.545,0.4,0.45));
#649 = CIRCLE('',#650,4.5E-02);
#650 = AXIS2_PLACEMENT_3D('',#651,#652,#653);
#651 = CARTESIAN_POINT('',(0.545,0.4,0.405));
#652 = DIRECTION('',(0.,1.,0.));
#653 = DIRECTION('',(0.,-0.,1.));
#654 = ORIENTED_EDGE('',*,*,#655,.T.);
#655 = EDGE_CURVE('',#647,#656,#658,.T.);
#656 = VERTEX_POINT('',#657);
#657 = CARTESIAN_POINT('',(0.755,0.4,0.45));
#658 = LINE('',#659,#660);
#659 = CARTESIAN_POINT('',(0.5,0.4,0.45));
#660 = VECTOR('',#661,1.);
#661 = DIRECTION('',(1.,0.,0.));
#662 = ORIENTED_EDGE('',*,*,#663,.F.);
#663 = EDGE_CURVE('',#664,#656,#666,.T.);
#664 = VERTEX_POINT('',#665);
#665 = CARTESIAN_POINT('',(0.8,0.4,0.405));
#666 = CIRCLE('',#667,4.5E-02);
#667 = AXIS2_PLACEMENT_3D('',#668,#669,#670);
#668 = CARTESIAN_POINT('',(0.755,0.4,0.405));
#669 = DIRECTION('',(0.,-1.,0.));
#670 = DIRECTION('',(0.,0.,1.));
#671 = ORIENTED_EDGE('',*,*,#672,.F.);
#672 = EDGE_CURVE('',#673,#664,#675,.T.);
#673 = VERTEX_POINT('',#674);
#674 = CARTESIAN_POINT('',(0.8,0.4,4.5E-02));
#675 = LINE('',#676,#677);
#676 = CARTESIAN_POINT('',(0.8,0.4,0.));
#677 = VECTOR('',#678,1.);
#678 = DIRECTION('',(0.,0.,1.));
#679 = ORIENTED_EDGE('',*,*,#680,.T.);
#680 = EDGE_CURVE('',#673,#629,#681,.T.);
#681 = CIRCLE('',#682,4.5E-02);
#682 = AXIS2_PLACEMENT_3D('',#683,#684,#685);
#683 = CARTESIAN_POINT('',(0.755,0.4,4.5E-02));
#684 = DIRECTION('',(0.,1.,0.));
#685 = DIRECTION('',(0.,-0.,1.));
#686 = PLANE('',#687);
#687 = AXIS2_PLACEMENT_3D('',#688,#689,#690);
#688 = CARTESIAN_POINT('',(0.5,0.4,0.));
#689 = DIRECTION('',(0.,1.,0.));
#690 = DIRECTION('',(0.,-0.,1.));
#691 = ADVANCED_FACE('',(#692),#710,.T.);
#692 = FACE_BOUND('',#693,.T.);
#693 = EDGE_LOOP('',(#694,#695,#696,#704));
#694 = ORIENTED_EDGE('',*,*,#439,.F.);
#695 = ORIENTED_EDGE('',*,*,#604,.T.);
#696 = ORIENTED_EDGE('',*,*,#697,.T.);
#697 = EDGE_CURVE('',#605,#698,#700,.T.);
#698 = VERTEX_POINT('',#699);
#699 = CARTESIAN_POINT('',(0.5,0.4,0.45));
#700 = LINE('',#701,#702);
#701 = CARTESIAN_POINT('',(-0.5,0.4,0.45));
#702 = VECTOR('',#703,1.);
#703 = DIRECTION('',(1.,0.,0.));
#704 = ORIENTED_EDGE('',*,*,#705,.F.);
#705 = EDGE_CURVE('',#440,#698,#706,.T.);
#706 = LINE('',#707,#708);
#707 = CARTESIAN_POINT('',(0.5,0.4,0.405));
#708 = VECTOR('',#709,1.);
#709 = DIRECTION('',(0.,0.,1.));
#710 = PLANE('',#711);
#711 = AXIS2_PLACEMENT_3D('',#712,#713,#714);
#712 = CARTESIAN_POINT('',(-0.5,0.4,0.405));
#713 = DIRECTION('',(0.,1.,0.));
#714 = DIRECTION('',(0.,-0.,1.));
#715 = ADVANCED_FACE('',(#716),#727,.T.);
#716 = FACE_BOUND('',#717,.T.);
#717 = EDGE_LOOP('',(#718,#719,#720,#726));
#718 = ORIENTED_EDGE('',*,*,#487,.T.);
#719 = ORIENTED_EDGE('',*,*,#636,.T.);
#720 = ORIENTED_EDGE('',*,*,#721,.F.);
#721 = EDGE_CURVE('',#503,#627,#722,.T.);
#722 = LINE('',#723,#724);
#723 = CARTESIAN_POINT('',(0.545,-0.4,-2.775557561563E-17));
#724 = VECTOR('',#725,1.);
#725 = DIRECTION('',(0.,1.,0.));
#726 = ORIENTED_EDGE('',*,*,#512,.F.);
#727 = CYLINDRICAL_SURFACE('',#728,4.5E-02);
#728 = AXIS2_PLACEMENT_3D('',#729,#730,#731);
#729 = CARTESIAN_POINT('',(0.545,-0.4,4.5E-02));
#730 = DIRECTION('',(0.,1.,0.));
#731 = DIRECTION('',(-1.,0.,0.));
#732 = ADVANCED_FACE('',(#733),#744,.F.);
#733 = FACE_BOUND('',#734,.F.);
#734 = EDGE_LOOP('',(#735,#736,#737,#738));
#735 = ORIENTED_EDGE('',*,*,#626,.F.);
#736 = ORIENTED_EDGE('',*,*,#721,.F.);
#737 = ORIENTED_EDGE('',*,*,#502,.T.);
#738 = ORIENTED_EDGE('',*,*,#739,.T.);
#739 = EDGE_CURVE('',#505,#629,#740,.T.);
#740 = LINE('',#741,#742);
#741 = CARTESIAN_POINT('',(0.755,-0.4,-2.775557561563E-17));
#742 = VECTOR('',#743,1.);
#743 = DIRECTION('',(0.,1.,0.));
#744 = PLANE('',#745);
#745 = AXIS2_PLACEMENT_3D('',#746,#747,#748);
#746 = CARTESIAN_POINT('',(0.5,-0.4,0.));
#747 = DIRECTION('',(0.,0.,1.));
#748 = DIRECTION('',(1.,0.,-0.));
#749 = ADVANCED_FACE('',(#750),#761,.T.);
#750 = FACE_BOUND('',#751,.T.);
#751 = EDGE_LOOP('',(#752,#753,#754,#755));
#752 = ORIENTED_EDGE('',*,*,#556,.T.);
#753 = ORIENTED_EDGE('',*,*,#739,.T.);
#754 = ORIENTED_EDGE('',*,*,#680,.F.);
#755 = ORIENTED_EDGE('',*,*,#756,.F.);
#756 = EDGE_CURVE('',#549,#673,#757,.T.);
#757 = LINE('',#758,#759);
#758 = CARTESIAN_POINT('',(0.8,-0.4,4.5E-02));
#759 = VECTOR('',#760,1.);
#760 = DIRECTION('',(0.,1.,0.));
#761 = CYLINDRICAL_SURFACE('',#762,4.5E-02);
#762 = AXIS2_PLACEMENT_3D('',#763,#764,#765);
#763 = CARTESIAN_POINT('',(0.755,-0.4,4.5E-02));
#764 = DIRECTION('',(0.,1.,0.));
#765 = DIRECTION('',(1.,0.,0.));
#766 = ADVANCED_FACE('',(#767),#778,.T.);
#767 = FACE_BOUND('',#768,.T.);
#768 = EDGE_LOOP('',(#769,#770,#771,#772));
#769 = ORIENTED_EDGE('',*,*,#548,.F.);
#770 = ORIENTED_EDGE('',*,*,#756,.T.);
#771 = ORIENTED_EDGE('',*,*,#672,.T.);
#772 = ORIENTED_EDGE('',*,*,#773,.F.);
#773 = EDGE_CURVE('',#540,#664,#774,.T.);
#774 = LINE('',#775,#776);
#775 = CARTESIAN_POINT('',(0.8,-0.4,0.405));
#776 = VECTOR('',#777,1.);
#777 = DIRECTION('',(0.,1.,0.));
#778 = PLANE('',#779);
#779 = AXIS2_PLACEMENT_3D('',#780,#781,#782);
#780 = CARTESIAN_POINT('',(0.8,-0.4,0.));
#781 = DIRECTION('',(1.,0.,0.));
#782 = DIRECTION('',(0.,0.,1.));
#783 = ADVANCED_FACE('',(#784),#795,.T.);
#784 = FACE_BOUND('',#785,.T.);
#785 = EDGE_LOOP('',(#786,#787,#788,#794));
#786 = ORIENTED_EDGE('',*,*,#773,.T.);
#787 = ORIENTED_EDGE('',*,*,#663,.T.);
#788 = ORIENTED_EDGE('',*,*,#789,.F.);
#789 = EDGE_CURVE('',#532,#656,#790,.T.);
#790 = LINE('',#791,#792);
#791 = CARTESIAN_POINT('',(0.755,-0.4,0.45));
#792 = VECTOR('',#793,1.);
#793 = DIRECTION('',(0.,1.,0.));
#794 = ORIENTED_EDGE('',*,*,#539,.F.);
#795 = CYLINDRICAL_SURFACE('',#796,4.5E-02);
#796 = AXIS2_PLACEMENT_3D('',#797,#798,#799);
#797 = CARTESIAN_POINT('',(0.755,-0.4,0.405));
#798 = DIRECTION('',(0.,1.,0.));
#799 = DIRECTION('',(1.,0.,0.));
#800 = ADVANCED_FACE('',(#801),#812,.T.);
#801 = FACE_BOUND('',#802,.T.);
#802 = EDGE_LOOP('',(#803,#804,#810,#811));
#803 = ORIENTED_EDGE('',*,*,#655,.F.);
#804 = ORIENTED_EDGE('',*,*,#805,.F.);
#805 = EDGE_CURVE('',#523,#647,#806,.T.);
#806 = LINE('',#807,#808);
#807 = CARTESIAN_POINT('',(0.545,-0.4,0.45));
#808 = VECTOR('',#809,1.);
#809 = DIRECTION('',(0.,1.,0.));
#810 = ORIENTED_EDGE('',*,*,#531,.T.);
#811 = ORIENTED_EDGE('',*,*,#789,.T.);
#812 = PLANE('',#813);
#813 = AXIS2_PLACEMENT_3D('',#814,#815,#816);
#814 = CARTESIAN_POINT('',(0.5,-0.4,0.45));
#815 = DIRECTION('',(0.,0.,1.));
#816 = DIRECTION('',(1.,0.,-0.));
#817 = ADVANCED_FACE('',(#818),#829,.T.);
#818 = FACE_BOUND('',#819,.T.);
#819 = EDGE_LOOP('',(#820,#821,#822,#823));
#820 = ORIENTED_EDGE('',*,*,#522,.T.);
#821 = ORIENTED_EDGE('',*,*,#805,.T.);
#822 = ORIENTED_EDGE('',*,*,#646,.F.);
#823 = ORIENTED_EDGE('',*,*,#824,.F.);
#824 = EDGE_CURVE('',#357,#440,#825,.T.);
#825 = LINE('',#826,#827);
#826 = CARTESIAN_POINT('',(0.5,-0.4,0.405));
#827 = VECTOR('',#828,1.);
#828 = DIRECTION('',(0.,1.,0.));
#829 = CYLINDRICAL_SURFACE('',#830,4.5E-02);
#830 = AXIS2_PLACEMENT_3D('',#831,#832,#833);
#831 = CARTESIAN_POINT('',(0.545,-0.4,0.405));
#832 = DIRECTION('',(0.,1.,0.));
#833 = DIRECTION('',(-1.,0.,0.));
#834 = ADVANCED_FACE('',(#835),#846,.T.);
#835 = FACE_BOUND('',#836,.T.);
#836 = EDGE_LOOP('',(#837,#838,#839,#840));
#837 = ORIENTED_EDGE('',*,*,#588,.F.);
#838 = ORIENTED_EDGE('',*,*,#824,.T.);
#839 = ORIENTED_EDGE('',*,*,#705,.T.);
#840 = ORIENTED_EDGE('',*,*,#841,.F.);
#841 = EDGE_CURVE('',#581,#698,#842,.T.);
#842 = LINE('',#843,#844);
#843 = CARTESIAN_POINT('',(0.5,-0.4,0.45));
#844 = VECTOR('',#845,1.);
#845 = DIRECTION('',(0.,1.,0.));
#846 = PLANE('',#847);
#847 = AXIS2_PLACEMENT_3D('',#848,#849,#850);
#848 = CARTESIAN_POINT('',(0.5,-0.4,0.405));
#849 = DIRECTION('',(1.,0.,0.));
#850 = DIRECTION('',(0.,0.,1.));
#851 = ADVANCED_FACE('',(#852),#858,.T.);
#852 = FACE_BOUND('',#853,.T.);
#853 = EDGE_LOOP('',(#854,#855,#856,#857));
#854 = ORIENTED_EDGE('',*,*,#612,.F.);
#855 = ORIENTED_EDGE('',*,*,#580,.T.);
#856 = ORIENTED_EDGE('',*,*,#841,.T.);
#857 = ORIENTED_EDGE('',*,*,#697,.F.);
#858 = PLANE('',#859);
#859 = AXIS2_PLACEMENT_3D('',#860,#861,#862);
#860 = CARTESIAN_POINT('',(-0.5,-0.4,0.45));
#861 = DIRECTION('',(0.,0.,1.));
#862 = DIRECTION('',(1.,0.,-0.));
#863 = ( GEOMETRIC_REPRESENTATION_CONTEXT(3) 
GLOBAL_UNCERTAINTY_ASSIGNED_CONTEXT((#867)) GLOBAL_UNIT_ASSIGNED_CONTEXT
((#864,#865,#866)) REPRESENTATION_CONTEXT('Context #1',
  '3D Context with UNIT and UNCERTAINTY') );
#864 = ( LENGTH_UNIT() NAMED_UNIT(*) SI_UNIT(.MILLI.,.METRE.) );
#865 = ( NAMED_UNIT(*) PLANE_ANGLE_UNIT() SI_UNIT($,.RADIAN.) );
#866 = ( NAMED_UNIT(*) SI_UNIT($,.STERADIAN.) SOLID_ANGLE_UNIT() );
#867 = UNCERTAINTY_MEASURE_WITH_UNIT(LENGTH_MEASURE(1.E-07),#864,
  'distance_accuracy_value','confusion accuracy');
#868 = CONTEXT_DEPENDENT_SHAPE_REPRESENTATION(#869,#871);
#869 = ( REPRESENTATION_RELATIONSHIP('','',#72,#10) 
REPRESENTATION_RELATIONSHIP_WITH_TRANSFORMATION(#870) 
SHAPE_REPRESENTATION_RELATIONSHIP() );
#870 = ITEM_DEFINED_TRANSFORMATION('','',#11,#15);
#871 = PRODUCT_DEFINITION_SHAPE('Placement','Placement of an item',#872
  );
#872 = NEXT_ASSEMBLY_USAGE_OCCURRENCE('1','R303','',#5,#67,$);
#873 = PRODUCT_RELATED_PRODUCT_CATEGORY('part',$,(#69));
#874 = CONTEXT_DEPENDENT_SHAPE_REPRESENTATION(#875,#877);
#875 = ( REPRESENTATION_RELATIONSHIP('','',#72,#10) 
REPRESENTATION_RELATIONSHIP_WITH_TRANSFORMATION(#876) 
SHAPE_REPRESENTATION_RELATIONSHIP() );
#876 = ITEM_DEFINED_TRANSFORMATION('','',#11,#19);
#877 = PRODUCT_DEFINITION_SHAPE('Placement','Placement of an item',#878
  );
#878 = NEXT_ASSEMBLY_USAGE_OCCURRENCE('2','R301','',#5,#67,$);
#879 = CONTEXT_DEPENDENT_SHAPE_REPRESENTATION(#880,#882);
#880 = ( REPRESENTATION_RELATIONSHIP('','',#72,#10) 
REPRESENTATION_RELATIONSHIP_WITH_TRANSFORMATION(#881) 
SHAPE_REPRESENTATION_RELATIONSHIP() );
#881 = ITEM_DEFINED_TRANSFORMATION('','',#11,#23);
#882 = PRODUCT_DEFINITION_SHAPE('Placement','Placement of an item',#883
  );
#883 = NEXT_ASSEMBLY_USAGE_OCCURRENCE('3','R403','',#5,#67,$);
#884 = CONTEXT_DEPENDENT_SHAPE_REPRESENTATION(#885,#887);
#885 = ( REPRESENTATION_RELATIONSHIP('','',#72,#10) 
REPRESENTATION_RELATIONSHIP_WITH_TRANSFORMATION(#886) 
SHAPE_REPRESENTATION_RELATIONSHIP() );
#886 = ITEM_DEFINED_TRANSFORMATION('','',#11,#27);
#887 = PRODUCT_DEFINITION_SHAPE('Placement','Placement of an item',#888
  );
#888 = NEXT_ASSEMBLY_USAGE_OCCURRENCE('4','R1','',#5,#67,$);
#889 = CONTEXT_DEPENDENT_SHAPE_REPRESENTATION(#890,#892);
#890 = ( REPRESENTATION_RELATIONSHIP('','',#72,#10) 
REPRESENTATION_RELATIONSHIP_WITH_TRANSFORMATION(#891) 
SHAPE_REPRESENTATION_RELATIONSHIP() );
#891 = ITEM_DEFINED_TRANSFORMATION('','',#11,#31);
#892 = PRODUCT_DEFINITION_SHAPE('Placement','Placement of an item',#893
  );
#893 = NEXT_ASSEMBLY_USAGE_OCCURRENCE('5','R903','',#5,#67,$);
#894 = CONTEXT_DEPENDENT_SHAPE_REPRESENTATION(#895,#897);
#895 = ( REPRESENTATION_RELATIONSHIP('','',#72,#10) 
REPRESENTATION_RELATIONSHIP_WITH_TRANSFORMATION(#896) 
SHAPE_REPRESENTATION_RELATIONSHIP() );
#896 = ITEM_DEFINED_TRANSFORMATION('','',#11,#35);
#897 = PRODUCT_DEFINITION_SHAPE('Placement','Placement of an item',#898
  );
#898 = NEXT_ASSEMBLY_USAGE_OCCURRENCE('6','R401','',#5,#67,$);
#899 = CONTEXT_DEPENDENT_SHAPE_REPRESENTATION(#900,#902);
#900 = ( REPRESENTATION_RELATIONSHIP('','',#72,#10) 
REPRESENTATION_RELATIONSHIP_WITH_TRANSFORMATION(#901) 
SHAPE_REPRESENTATION_RELATIONSHIP() );
#901 = ITEM_DEFINED_TRANSFORMATION('','',#11,#39);
#902 = PRODUCT_DEFINITION_SHAPE('Placement','Placement of an item',#903
  );
#903 = NEXT_ASSEMBLY_USAGE_OCCURRENCE('7','R905','',#5,#67,$);
#904 = CONTEXT_DEPENDENT_SHAPE_REPRESENTATION(#905,#907);
#905 = ( REPRESENTATION_RELATIONSHIP('','',#72,#10) 
REPRESENTATION_RELATIONSHIP_WITH_TRANSFORMATION(#906) 
SHAPE_REPRESENTATION_RELATIONSHIP() );
#906 = ITEM_DEFINED_TRANSFORMATION('','',#11,#43);
#907 = PRODUCT_DEFINITION_SHAPE('Placement','Placement of an item',#908
  );
#908 = NEXT_ASSEMBLY_USAGE_OCCURRENCE('8','R902','',#5,#67,$);
#909 = CONTEXT_DEPENDENT_SHAPE_REPRESENTATION(#910,#912);
#910 = ( REPRESENTATION_RELATIONSHIP('','',#72,#10) 
REPRESENTATION_RELATIONSHIP_WITH_TRANSFORMATION(#911) 
SHAPE_REPRESENTATION_RELATIONSHIP() );
#911 = ITEM_DEFINED_TRANSFORMATION('','',#11,#47);
#912 = PRODUCT_DEFINITION_SHAPE('Placement','Placement of an item',#913
  );
#913 = NEXT_ASSEMBLY_USAGE_OCCURRENCE('9','R302','',#5,#67,$);
#914 = CONTEXT_DEPENDENT_SHAPE_REPRESENTATION(#915,#917);
#915 = ( REPRESENTATION_RELATIONSHIP('','',#72,#10) 
REPRESENTATION_RELATIONSHIP_WITH_TRANSFORMATION(#916) 
SHAPE_REPRESENTATION_RELATIONSHIP() );
#916 = ITEM_DEFINED_TRANSFORMATION('','',#11,#51);
#917 = PRODUCT_DEFINITION_SHAPE('Placement','Placement of an item',#918
  );
#918 = NEXT_ASSEMBLY_USAGE_OCCURRENCE('10','R901','',#5,#67,$);
#919 = SHAPE_DEFINITION_REPRESENTATION(#920,#926);
#920 = PRODUCT_DEFINITION_SHAPE('','',#921);
#921 = PRODUCT_DEFINITION('design','',#922,#925);
#922 = PRODUCT_DEFINITION_FORMATION('','',#923);
#923 = PRODUCT('kibot_9qajducs_PCB','kibot_9qajducs_PCB','',(#924));
#924 = PRODUCT_CONTEXT('',#2,'mechanical');
#925 = PRODUCT_DEFINITION_CONTEXT('part definition',#2,'design');
#926 = ADVANCED_BREP_SHAPE_REPRESENTATION('',(#11,#927),#1077);
#927 = MANIFOLD_SOLID_BREP('',#928);
#928 = CLOSED_SHELL('',(#929,#969,#1000,#1031,#1053,#1065));
#929 = ADVANCED_FACE('',(#930),#964,.T.);
#930 = FACE_BOUND('',#931,.T.);
#931 = EDGE_LOOP('',(#932,#942,#950,#958));
#932 = ORIENTED_EDGE('',*,*,#933,.T.);
#933 = EDGE_CURVE('',#934,#936,#938,.T.);
#934 = VERTEX_POINT('',#935);
#935 = CARTESIAN_POINT('',(150.,-125.,0.));
#936 = VERTEX_POINT('',#937);
#937 = CARTESIAN_POINT('',(150.,-125.,1.48));
#938 = LINE('',#939,#940);
#939 = CARTESIAN_POINT('',(150.,-125.,0.));
#940 = VECTOR('',#941,1.);
#941 = DIRECTION('',(0.,0.,1.));
#942 = ORIENTED_EDGE('',*,*,#943,.T.);
#943 = EDGE_CURVE('',#936,#944,#946,.T.);
#944 = VERTEX_POINT('',#945);
#945 = CARTESIAN_POINT('',(80.,-125.,1.48));
#946 = LINE('',#947,#948);
#947 = CARTESIAN_POINT('',(150.,-125.,1.48));
#948 = VECTOR('',#949,1.);
#949 = DIRECTION('',(-1.,0.,0.));
#950 = ORIENTED_EDGE('',*,*,#951,.F.);
#951 = EDGE_CURVE('',#952,#944,#954,.T.);
#952 = VERTEX_POINT('',#953);
#953 = CARTESIAN_POINT('',(80.,-125.,0.));
#954 = LINE('',#955,#956);
#955 = CARTESIAN_POINT('',(80.,-125.,0.));
#956 = VECTOR('',#957,1.);
#957 = DIRECTION('',(0.,0.,1.));
#958 = ORIENTED_EDGE('',*,*,#959,.F.);
#959 = EDGE_CURVE('',#934,#952,#960,.T.);
#960 = LINE('',#961,#962);
#961 = CARTESIAN_POINT('',(150.,-125.,0.));
#962 = VECTOR('',#963,1.);
#963 = DIRECTION('',(-1.,0.,0.));
#964 = PLANE('',#965);
#965 = AXIS2_PLACEMENT_3D('',#966,#967,#968);
#966 = CARTESIAN_POINT('',(150.,-125.,0.));
#967 = DIRECTION('',(0.,-1.,0.));
#968 = DIRECTION('',(-1.,0.,0.));
#969 = ADVANCED_FACE('',(#970),#995,.T.);
#970 = FACE_BOUND('',#971,.T.);
#971 = EDGE_LOOP('',(#972,#973,#981,#989));
#972 = ORIENTED_EDGE('',*,*,#951,.T.);
#973 = ORIENTED_EDGE('',*,*,#974,.T.);
#974 = EDGE_CURVE('',#944,#975,#977,.T.);
#975 = VERTEX_POINT('',#976);
#976 = CARTESIAN_POINT('',(80.,-80.,1.48));
#977 = LINE('',#978,#979);
#978 = CARTESIAN_POINT('',(80.,-125.,1.48));
#979 = VECTOR('',#980,1.);
#980 = DIRECTION('',(0.,1.,0.));
#981 = ORIENTED_EDGE('',*,*,#982,.F.);
#982 = EDGE_CURVE('',#983,#975,#985,.T.);
#983 = VERTEX_POINT('',#984);
#984 = CARTESIAN_POINT('',(80.,-80.,0.));
#985 = LINE('',#986,#987);
#986 = CARTESIAN_POINT('',(80.,-80.,0.));
#987 = VECTOR('',#988,1.);
#988 = DIRECTION('',(0.,0.,1.));
#989 = ORIENTED_EDGE('',*,*,#990,.F.);
#990 = EDGE_CURVE('',#952,#983,#991,.T.);
#991 = LINE('',#992,#993);
#992 = CARTESIAN_POINT('',(80.,-125.,0.));
#993 = VECTOR('',#994,1.);
#994 = DIRECTION('',(0.,1.,0.));
#995 = PLANE('',#996);
#996 = AXIS2_PLACEMENT_3D('',#997,#998,#999);
#997 = CARTESIAN_POINT('',(80.,-125.,0.));
#998 = DIRECTION('',(-1.,0.,0.));
#999 = DIRECTION('',(0.,1.,0.));
#1000 = ADVANCED_FACE('',(#1001),#1026,.T.);
#1001 = FACE_BOUND('',#1002,.T.);
#1002 = EDGE_LOOP('',(#1003,#1004,#1012,#1020));
#1003 = ORIENTED_EDGE('',*,*,#982,.T.);
#1004 = ORIENTED_EDGE('',*,*,#1005,.T.);
#1005 = EDGE_CURVE('',#975,#1006,#1008,.T.);
#1006 = VERTEX_POINT('',#1007);
#1007 = CARTESIAN_POINT('',(150.,-80.,1.48));
#1008 = LINE('',#1009,#1010);
#1009 = CARTESIAN_POINT('',(80.,-80.,1.48));
#1010 = VECTOR('',#1011,1.);
#1011 = DIRECTION('',(1.,0.,0.));
#1012 = ORIENTED_EDGE('',*,*,#1013,.F.);
#1013 = EDGE_CURVE('',#1014,#1006,#1016,.T.);
#1014 = VERTEX_POINT('',#1015);
#1015 = CARTESIAN_POINT('',(150.,-80.,0.));
#1016 = LINE('',#1017,#1018);
#1017 = CARTESIAN_POINT('',(150.,-80.,0.));
#1018 = VECTOR('',#1019,1.);
#1019 = DIRECTION('',(0.,0.,1.));
#1020 = ORIENTED_EDGE('',*,*,#1021,.F.);
#1021 = EDGE_CURVE('',#983,#1014,#1022,.T.);
#1022 = LINE('',#1023,#1024);
#1023 = CARTESIAN_POINT('',(80.,-80.,0.));
#1024 = VECTOR('',#1025,1.);
#1025 = DIRECTION('',(1.,0.,0.));
#1026 = PLANE('',#1027);
#1027 = AXIS2_PLACEMENT_3D('',#1028,#1029,#1030);
#1028 = CARTESIAN_POINT('',(80.,-80.,0.));
#1029 = DIRECTION('',(0.,1.,0.));
#1030 = DIRECTION('',(1.,0.,0.));
#1031 = ADVANCED_FACE('',(#1032),#1048,.T.);
#1032 = FACE_BOUND('',#1033,.T.);
#1033 = EDGE_LOOP('',(#1034,#1035,#1041,#1042));
#1034 = ORIENTED_EDGE('',*,*,#1013,.T.);
#1035 = ORIENTED_EDGE('',*,*,#1036,.T.);
#1036 = EDGE_CURVE('',#1006,#936,#1037,.T.);
#1037 = LINE('',#1038,#1039);
#1038 = CARTESIAN_POINT('',(150.,-80.,1.48));
#1039 = VECTOR('',#1040,1.);
#1040 = DIRECTION('',(0.,-1.,0.));
#1041 = ORIENTED_EDGE('',*,*,#933,.F.);
#1042 = ORIENTED_EDGE('',*,*,#1043,.F.);
#1043 = EDGE_CURVE('',#1014,#934,#1044,.T.);
#1044 = LINE('',#1045,#1046);
#1045 = CARTESIAN_POINT('',(150.,-80.,0.));
#1046 = VECTOR('',#1047,1.);
#1047 = DIRECTION('',(0.,-1.,0.));
#1048 = PLANE('',#1049);
#1049 = AXIS2_PLACEMENT_3D('',#1050,#1051,#1052);
#1050 = CARTESIAN_POINT('',(150.,-80.,0.));
#1051 = DIRECTION('',(1.,0.,-0.));
#1052 = DIRECTION('',(0.,-1.,0.));
#1053 = ADVANCED_FACE('',(#1054),#1060,.F.);
#1054 = FACE_BOUND('',#1055,.T.);
#1055 = EDGE_LOOP('',(#1056,#1057,#1058,#1059));
#1056 = ORIENTED_EDGE('',*,*,#959,.T.);
#1057 = ORIENTED_EDGE('',*,*,#990,.T.);
#1058 = ORIENTED_EDGE('',*,*,#1021,.T.);
#1059 = ORIENTED_EDGE('',*,*,#1043,.T.);
#1060 = PLANE('',#1061);
#1061 = AXIS2_PLACEMENT_3D('',#1062,#1063,#1064);
#1062 = CARTESIAN_POINT('',(0.,0.,0.));
#1063 = DIRECTION('',(0.,0.,1.));
#1064 = DIRECTION('',(1.,0.,-0.));
#1065 = ADVANCED_FACE('',(#1066),#1072,.T.);
#1066 = FACE_BOUND('',#1067,.F.);
#1067 = EDGE_LOOP('',(#1068,#1069,#1070,#1071));
#1068 = ORIENTED_EDGE('',*,*,#943,.T.);
#1069 = ORIENTED_EDGE('',*,*,#974,.T.);
#1070 = ORIENTED_EDGE('',*,*,#1005,.T.);
#1071 = ORIENTED_EDGE('',*,*,#1036,.T.);
#1072 = PLANE('',#1073);
#1073 = AXIS2_PLACEMENT_3D('',#1074,#1075,#1076);
#1074 = CARTESIAN_POINT('',(0.,0.,1.48));
#1075 = DIRECTION('',(0.,0.,1.));
#1076 = DIRECTION('',(1.,0.,-0.));
#1077 = ( GEOMETRIC_REPRESENTATION_CONTEXT(3) 
GLOBAL_UNCERTAINTY_ASSIGNED_CONTEXT((#1081)) 
GLOBAL_UNIT_ASSIGNED_CONTEXT((#1078,#1079,#1080)) REPRESENTATION_CONTEXT
('Context #1','3D Context with UNIT and UNCERTAINTY') );
#1078 = ( LENGTH_UNIT() NAMED_UNIT(*) SI_UNIT(.MILLI.,.METRE.) );
#1079 = ( NAMED_UNIT(*) PLANE_ANGLE_UNIT() SI_UNIT($,.RADIAN.) );
#1080 = ( NAMED_UNIT(*) SI_UNIT($,.STERADIAN.) SOLID_ANGLE_UNIT() );
#1081 = UNCERTAINTY_MEASURE_WITH_UNIT(LENGTH_MEASURE(1.E-07),#1078,
  'distance_accuracy_value','confusion accuracy');
#1082 = CONTEXT_DEPENDENT_SHAPE_REPRESENTATION(#1083,#1085);
#1083 = ( REPRESENTATION_RELATIONSHIP('','',#926,#10) 
REPRESENTATION_RELATIONSHIP_WITH_TRANSFORMATION(#1084) 
SHAPE_REPRESENTATION_RELATIONSHIP() );
#1084 = ITEM_DEFINED_TRANSFORMATION('','',#11,#55);
#1085 = PRODUCT_DEFINITION_SHAPE('Placement','Placement of an item',
  #1086);
#1086 = NEXT_ASSEMBLY_USAGE_OCCURRENCE('11','=>[0:1:1:3]','',#5,#921,$);
#1087 = PRODUCT_RELATED_PRODUCT_CATEGORY('part',$,(#923));
#1088 = MECHANICAL_DESIGN_GEOMETRIC_PRESENTATION_REPRESENTATION('',(
    #1089),#1077);
#1089 = STYLED_ITEM('color',(#1090),#927);
#1090 = PRESENTATION_STYLE_ASSIGNMENT((#1091));
#1091 = SURFACE_STYLE_USAGE(.BOTH.,#1092);
#1092 = SURFACE_SIDE_STYLE('',(#1093));
#1093 = SURFACE_STYLE_FILL_AREA(#1094);
#1094 = FILL_AREA_STYLE('',(#1095));
#1095 = FILL_AREA_STYLE_COLOUR('',#1096);
#1096 = COLOUR_RGB('',0.204454873135,0.204454873135,0.204454873135);
#1097 = MECHANICAL_DESIGN_GEOMETRIC_PRESENTATION_REPRESENTATION('',(
    #1098,#1106,#1113,#1120,#1127,#1134,#1141,#1148,#1156,#1163,#1170,
    #1177,#1184,#1191,#1199,#1206,#1213,#1220,#1227,#1234,#1241,#1248,
    #1255,#1262,#1269,#1276),#863);
#1098 = STYLED_ITEM('color',(#1099),#75);
#1099 = PRESENTATION_STYLE_ASSIGNMENT((#1100));
#1100 = SURFACE_STYLE_USAGE(.BOTH.,#1101);
#1101 = SURFACE_SIDE_STYLE('',(#1102));
#1102 = SURFACE_STYLE_FILL_AREA(#1103);
#1103 = FILL_AREA_STYLE('',(#1104));
#1104 = FILL_AREA_STYLE_COLOUR('',#1105);
#1105 = COLOUR_RGB('',0.823999987314,0.819999987296,0.781000009244);
#1106 = STYLED_ITEM('color',(#1107),#115);
#1107 = PRESENTATION_STYLE_ASSIGNMENT((#1108));
#1108 = SURFACE_STYLE_USAGE(.BOTH.,#1109);
#1109 = SURFACE_SIDE_STYLE('',(#1110));
#1110 = SURFACE_STYLE_FILL_AREA(#1111);
#1111 = FILL_AREA_STYLE('',(#1112));
#1112 = FILL_AREA_STYLE_COLOUR('',#1105);
#1113 = STYLED_ITEM('color',(#1114),#198);
#1114 = PRESENTATION_STYLE_ASSIGNMENT((#1115));
#1115 = SURFACE_STYLE_USAGE(.BOTH.,#1116);
#1116 = SURFACE_SIDE_STYLE('',(#1117));
#1117 = SURFACE_STYLE_FILL_AREA(#1118);
#1118 = FILL_AREA_STYLE('',(#1119));
#1119 = FILL_AREA_STYLE_COLOUR('',#1105);
#1120 = STYLED_ITEM('color',(#1121),#223);
#1121 = PRESENTATION_STYLE_ASSIGNMENT((#1122));
#1122 = SURFACE_STYLE_USAGE(.BOTH.,#1123);
#1123 = SURFACE_SIDE_STYLE('',(#1124));
#1124 = SURFACE_STYLE_FILL_AREA(#1125);
#1125 = FILL_AREA_STYLE('',(#1126));
#1126 = FILL_AREA_STYLE_COLOUR('',#1105);
#1127 = STYLED_ITEM('color',(#1128),#248);
#1128 = PRESENTATION_STYLE_ASSIGNMENT((#1129));
#1129 = SURFACE_STYLE_USAGE(.BOTH.,#1130);
#1130 = SURFACE_SIDE_STYLE('',(#1131));
#1131 = SURFACE_STYLE_FILL_AREA(#1132);
#1132 = FILL_AREA_STYLE('',(#1133));
#1133 = FILL_AREA_STYLE_COLOUR('',#1105);
#1134 = STYLED_ITEM('color',(#1135),#315);
#1135 = PRESENTATION_STYLE_ASSIGNMENT((#1136));
#1136 = SURFACE_STYLE_USAGE(.BOTH.,#1137);
#1137 = SURFACE_SIDE_STYLE('',(#1138));
#1138 = SURFACE_STYLE_FILL_AREA(#1139);
#1139 = FILL_AREA_STYLE('',(#1140));
#1140 = FILL_AREA_STYLE_COLOUR('',#1105);
#1141 = STYLED_ITEM('color',(#1142),#332);
#1142 = PRESENTATION_STYLE_ASSIGNMENT((#1143));
#1143 = SURFACE_STYLE_USAGE(.BOTH.,#1144);
#1144 = SURFACE_SIDE_STYLE('',(#1145));
#1145 = SURFACE_STYLE_FILL_AREA(#1146);
#1146 = FILL_AREA_STYLE('',(#1147));
#1147 = FILL_AREA_STYLE_COLOUR('',#1105);
#1148 = STYLED_ITEM('color',(#1149),#349);
#1149 = PRESENTATION_STYLE_ASSIGNMENT((#1150));
#1150 = SURFACE_STYLE_USAGE(.BOTH.,#1151);
#1151 = SURFACE_SIDE_STYLE('',(#1152));
#1152 = SURFACE_STYLE_FILL_AREA(#1153);
#1153 = FILL_AREA_STYLE('',(#1154));
#1154 = FILL_AREA_STYLE_COLOUR('',#1155);
#1155 = COLOUR_RGB('',0.894999966383,0.890999961016,0.813000030345);
#1156 = STYLED_ITEM('color',(#1157),#398);
#1157 = PRESENTATION_STYLE_ASSIGNMENT((#1158));
#1158 = SURFACE_STYLE_USAGE(.BOTH.,#1159);
#1159 = SURFACE_SIDE_STYLE('',(#1160));
#1160 = SURFACE_STYLE_FILL_AREA(#1161);
#1161 = FILL_AREA_STYLE('',(#1162));
#1162 = FILL_AREA_STYLE_COLOUR('',#1105);
#1163 = STYLED_ITEM('color',(#1164),#415);
#1164 = PRESENTATION_STYLE_ASSIGNMENT((#1165));
#1165 = SURFACE_STYLE_USAGE(.BOTH.,#1166);
#1166 = SURFACE_SIDE_STYLE('',(#1167));
#1167 = SURFACE_STYLE_FILL_AREA(#1168);
#1168 = FILL_AREA_STYLE('',(#1169));
#1169 = FILL_AREA_STYLE_COLOUR('',#1105);
#1170 = STYLED_ITEM('color',(#1171),#432);
#1171 = PRESENTATION_STYLE_ASSIGNMENT((#1172));
#1172 = SURFACE_STYLE_USAGE(.BOTH.,#1173);
#1173 = SURFACE_SIDE_STYLE('',(#1174));
#1174 = SURFACE_STYLE_FILL_AREA(#1175);
#1175 = FILL_AREA_STYLE('',(#1176));
#1176 = FILL_AREA_STYLE_COLOUR('',#1155);
#1177 = STYLED_ITEM('color',(#1178),#481);
#1178 = PRESENTATION_STYLE_ASSIGNMENT((#1179));
#1179 = SURFACE_STYLE_USAGE(.BOTH.,#1180);
#1180 = SURFACE_SIDE_STYLE('',(#1181));
#1181 = SURFACE_STYLE_FILL_AREA(#1182);
#1182 = FILL_AREA_STYLE('',(#1183));
#1183 = FILL_AREA_STYLE_COLOUR('',#1155);
#1184 = STYLED_ITEM('color',(#1185),#498);
#1185 = PRESENTATION_STYLE_ASSIGNMENT((#1186));
#1186 = SURFACE_STYLE_USAGE(.BOTH.,#1187);
#1187 = SURFACE_SIDE_STYLE('',(#1188));
#1188 = SURFACE_STYLE_FILL_AREA(#1189);
#1189 = FILL_AREA_STYLE('',(#1190));
#1190 = FILL_AREA_STYLE_COLOUR('',#1105);
#1191 = STYLED_ITEM('color',(#1192),#567);
#1192 = PRESENTATION_STYLE_ASSIGNMENT((#1193));
#1193 = SURFACE_STYLE_USAGE(.BOTH.,#1194);
#1194 = SURFACE_SIDE_STYLE('',(#1195));
#1195 = SURFACE_STYLE_FILL_AREA(#1196);
#1196 = FILL_AREA_STYLE('',(#1197));
#1197 = FILL_AREA_STYLE_COLOUR('',#1198);
#1198 = COLOUR_RGB('',8.200000279077E-02,8.600000121357E-02,
  9.399999706163E-02);
#1199 = STYLED_ITEM('color',(#1200),#598);
#1200 = PRESENTATION_STYLE_ASSIGNMENT((#1201));
#1201 = SURFACE_STYLE_USAGE(.BOTH.,#1202);
#1202 = SURFACE_SIDE_STYLE('',(#1203));
#1203 = SURFACE_STYLE_FILL_AREA(#1204);
#1204 = FILL_AREA_STYLE('',(#1205));
#1205 = FILL_AREA_STYLE_COLOUR('',#1198);
#1206 = STYLED_ITEM('color',(#1207),#622);
#1207 = PRESENTATION_STYLE_ASSIGNMENT((#1208));
#1208 = SURFACE_STYLE_USAGE(.BOTH.,#1209);
#1209 = SURFACE_SIDE_STYLE('',(#1210));
#1210 = SURFACE_STYLE_FILL_AREA(#1211);
#1211 = FILL_AREA_STYLE('',(#1212));
#1212 = FILL_AREA_STYLE_COLOUR('',#1105);
#1213 = STYLED_ITEM('color',(#1214),#691);
#1214 = PRESENTATION_STYLE_ASSIGNMENT((#1215));
#1215 = SURFACE_STYLE_USAGE(.BOTH.,#1216);
#1216 = SURFACE_SIDE_STYLE('',(#1217));
#1217 = SURFACE_STYLE_FILL_AREA(#1218);
#1218 = FILL_AREA_STYLE('',(#1219));
#1219 = FILL_AREA_STYLE_COLOUR('',#1198);
#1220 = STYLED_ITEM('color',(#1221),#715);
#1221 = PRESENTATION_STYLE_ASSIGNMENT((#1222));
#1222 = SURFACE_STYLE_USAGE(.BOTH.,#1223);
#1223 = SURFACE_SIDE_STYLE('',(#1224));
#1224 = SURFACE_STYLE_FILL_AREA(#1225);
#1225 = FILL_AREA_STYLE('',(#1226));
#1226 = FILL_AREA_STYLE_COLOUR('',#1105);
#1227 = STYLED_ITEM('color',(#1228),#732);
#1228 = PRESENTATION_STYLE_ASSIGNMENT((#1229));
#1229 = SURFACE_STYLE_USAGE(.BOTH.,#1230);
#1230 = SURFACE_SIDE_STYLE('',(#1231));
#1231 = SURFACE_STYLE_FILL_AREA(#1232);
#1232 = FILL_AREA_STYLE('',(#1233));
#1233 = FILL_AREA_STYLE_COLOUR('',#1105);
#1234 = STYLED_ITEM('color',(#1235),#749);
#1235 = PRESENTATION_STYLE_ASSIGNMENT((#1236));
#1236 = SURFACE_STYLE_USAGE(.BOTH.,#1237);
#1237 = SURFACE_SIDE_STYLE('',(#1238));
#1238 = SURFACE_STYLE_FILL_AREA(#1239);
#1239 = FILL_AREA_STYLE('',(#1240));
#1240 = FILL_AREA_STYLE_COLOUR('',#1105);
#1241 = STYLED_ITEM('color',(#1242),#766);
#1242 = PRESENTATION_STYLE_ASSIGNMENT((#1243));
#1243 = SURFACE_STYLE_USAGE(.BOTH.,#1244);
#1244 = SURFACE_SIDE_STYLE('',(#1245));
#1245 = SURFACE_STYLE_FILL_AREA(#1246);
#1246 = FILL_AREA_STYLE('',(#1247));
#1247 = FILL_AREA_STYLE_COLOUR('',#1105);
#1248 = STYLED_ITEM('color',(#1249),#783);
#1249 = PRESENTATION_STYLE_ASSIGNMENT((#1250));
#1250 = SURFACE_STYLE_USAGE(.BOTH.,#1251);
#1251 = SURFACE_SIDE_STYLE('',(#1252));
#1252 = SURFACE_STYLE_FILL_AREA(#1253);
#1253 = FILL_AREA_STYLE('',(#1254));
#1254 = FILL_AREA_STYLE_COLOUR('',#1105);
#1255 = STYLED_ITEM('color',(#1256),#800);
#1256 = PRESENTATION_STYLE_ASSIGNMENT((#1257));
#1257 = SURFACE_STYLE_USAGE(.BOTH.,#1258);
#1258 = SURFACE_SIDE_STYLE('',(#1259));
#1259 = SURFACE_STYLE_FILL_AREA(#1260);
#1260 = FILL_AREA_STYLE('',(#1261));
#1261 = FILL_AREA_STYLE_COLOUR('',#1105);
#1262 = STYLED_ITEM('color',(#1263),#817);
#1263 = PRESENTATION_STYLE_ASSIGNMENT((#1264));
#1264 = SURFACE_STYLE_USAGE(.BOTH.,#1265);
#1265 = SURFACE_SIDE_STYLE('',(#1266));
#1266 = SURFACE_STYLE_FILL_AREA(#1267);
#1267 = FILL_AREA_STYLE('',(#1268));
#1268 = FILL_AREA_STYLE_COLOUR('',#1105);
#1269 = STYLED_ITEM('color',(#1270),#834);
#1270 = PRESENTATION_STYLE_ASSIGNMENT((#1271));
#1271 = SURFACE_STYLE_USAGE(.BOTH.,#1272);
#1272 = SURFACE_SIDE_STYLE('',(#1273));
#1273 = SURFACE_STYLE_FILL_AREA(#1274);
#1274 = FILL_AREA_STYLE('',(#1275));
#1275 = FILL_AREA_STYLE_COLOUR('',#1198);
#1276 = STYLED_ITEM('color',(#1277),#851);
#1277 = PRESENTATION_STYLE_ASSIGNMENT((#1278));
#1278 = SURFACE_STYLE_USAGE(.BOTH.,#1279);
#1279 = SURFACE_SIDE_STYLE('',(#1280));
#1280 = SURFACE_STYLE_FILL_AREA(#1281);
#1281 = FILL_AREA_STYLE('',(#1282));
#1282 = FILL_AREA_STYLE_COLOUR('',#1198);
ENDSEC;
END-ISO-10303-21;
